<mxfile host="app.diagrams.net" agent="Mozilla/5.0 (X11; Ubuntu; Linux x86_64; rv:134.0) Gecko/20100101 Firefox/134.0" version="26.0.15" pages="2">
  <diagram name="第 1 页" id="S6Xsh_s3cChGYGSIQ7Q2">
    <mxGraphModel dx="1670" dy="663" grid="1" gridSize="10" guides="1" tooltips="1" connect="1" arrows="1" fold="1" page="1" pageScale="1" pageWidth="827" pageHeight="1169" math="0" shadow="0">
      <root>
        <mxCell id="0" />
        <mxCell id="1" parent="0" />
        <mxCell id="Grrrto9bCgGKr0EERufB-2" value="" style="edgeStyle=orthogonalEdgeStyle;rounded=0;orthogonalLoop=1;jettySize=auto;html=1;" edge="1" parent="1" source="bf8pDasYGGa79VO1k7Hl-1" target="Grrrto9bCgGKr0EERufB-1">
          <mxGeometry relative="1" as="geometry" />
        </mxCell>
        <mxCell id="bf8pDasYGGa79VO1k7Hl-1" value="用户点击注册" style="rounded=1;whiteSpace=wrap;html=1;" vertex="1" parent="1">
          <mxGeometry x="74" y="303" width="80" height="40" as="geometry" />
        </mxCell>
        <mxCell id="Grrrto9bCgGKr0EERufB-5" value="" style="edgeStyle=orthogonalEdgeStyle;rounded=0;orthogonalLoop=1;jettySize=auto;html=1;" edge="1" parent="1" source="Grrrto9bCgGKr0EERufB-1" target="Grrrto9bCgGKr0EERufB-3">
          <mxGeometry relative="1" as="geometry" />
        </mxCell>
        <mxCell id="Grrrto9bCgGKr0EERufB-1" value="客户端http管理模块向gate server发送请求" style="rounded=1;whiteSpace=wrap;html=1;" vertex="1" parent="1">
          <mxGeometry x="234" y="303" width="140" height="40" as="geometry" />
        </mxCell>
        <mxCell id="Grrrto9bCgGKr0EERufB-11" style="edgeStyle=orthogonalEdgeStyle;rounded=0;orthogonalLoop=1;jettySize=auto;html=1;exitX=0.5;exitY=1;exitDx=0;exitDy=0;entryX=0.5;entryY=0;entryDx=0;entryDy=0;" edge="1" parent="1" source="Grrrto9bCgGKr0EERufB-3" target="Grrrto9bCgGKr0EERufB-10">
          <mxGeometry relative="1" as="geometry" />
        </mxCell>
        <mxCell id="Grrrto9bCgGKr0EERufB-14" style="edgeStyle=orthogonalEdgeStyle;rounded=0;orthogonalLoop=1;jettySize=auto;html=1;entryX=0.5;entryY=1;entryDx=0;entryDy=0;" edge="1" parent="1" source="Grrrto9bCgGKr0EERufB-3" target="Grrrto9bCgGKr0EERufB-7">
          <mxGeometry relative="1" as="geometry" />
        </mxCell>
        <mxCell id="Grrrto9bCgGKr0EERufB-3" value="密码是否正确" style="rhombus;whiteSpace=wrap;html=1;" vertex="1" parent="1">
          <mxGeometry x="454" y="283" width="100" height="80" as="geometry" />
        </mxCell>
        <mxCell id="Grrrto9bCgGKr0EERufB-15" style="edgeStyle=orthogonalEdgeStyle;rounded=0;orthogonalLoop=1;jettySize=auto;html=1;exitX=0;exitY=0.5;exitDx=0;exitDy=0;entryX=0.5;entryY=0;entryDx=0;entryDy=0;" edge="1" parent="1" source="Grrrto9bCgGKr0EERufB-7" target="Grrrto9bCgGKr0EERufB-1">
          <mxGeometry relative="1" as="geometry" />
        </mxCell>
        <mxCell id="Grrrto9bCgGKr0EERufB-7" value="访问状态服务器分配聊天服务器" style="rounded=1;whiteSpace=wrap;html=1;" vertex="1" parent="1">
          <mxGeometry x="439" y="160" width="130" height="40" as="geometry" />
        </mxCell>
        <mxCell id="Grrrto9bCgGKr0EERufB-9" value="是" style="text;html=1;align=center;verticalAlign=middle;resizable=0;points=[];autosize=1;strokeColor=none;fillColor=none;" vertex="1" parent="1">
          <mxGeometry x="500" y="230" width="40" height="30" as="geometry" />
        </mxCell>
        <mxCell id="Grrrto9bCgGKr0EERufB-16" style="edgeStyle=orthogonalEdgeStyle;rounded=0;orthogonalLoop=1;jettySize=auto;html=1;exitX=0;exitY=0.5;exitDx=0;exitDy=0;entryX=0.5;entryY=1;entryDx=0;entryDy=0;" edge="1" parent="1" source="Grrrto9bCgGKr0EERufB-10" target="Grrrto9bCgGKr0EERufB-1">
          <mxGeometry relative="1" as="geometry" />
        </mxCell>
        <mxCell id="Grrrto9bCgGKr0EERufB-10" value="终止流程通知客户端错误" style="rounded=1;whiteSpace=wrap;html=1;" vertex="1" parent="1">
          <mxGeometry x="434" y="450" width="140" height="40" as="geometry" />
        </mxCell>
        <mxCell id="Grrrto9bCgGKr0EERufB-12" value="否" style="text;html=1;align=center;verticalAlign=middle;resizable=0;points=[];autosize=1;strokeColor=none;fillColor=none;" vertex="1" parent="1">
          <mxGeometry x="494" y="378" width="40" height="30" as="geometry" />
        </mxCell>
      </root>
    </mxGraphModel>
  </diagram>
  <diagram id="emymZQ7ivt4VJ9yUmmxU" name="第 2 页">
    <mxGraphModel grid="1" page="1" gridSize="10" guides="1" tooltips="1" connect="1" arrows="1" fold="1" pageScale="1" pageWidth="827" pageHeight="1169" math="0" shadow="0">
      <root>
        <mxCell id="0" />
        <mxCell id="1" parent="0" />
      </root>
    </mxGraphModel>
  </diagram>
</mxfile>
